<?xml version="1.0" encoding="utf-8"?>
<!-- Generator: Adobe Illustrator 19.1.0, SVG Export Plug-In . SVG Version: 6.00 Build 0)  -->
<svg version="1.1" id="Layer_1" xmlns="http://www.w3.org/2000/svg" xmlns:xlink="http://www.w3.org/1999/xlink" x="0px" y="0px"
	 viewBox="0 0 137.6 19.9" style="enable-background:new 0 0 137.6 19.9;" xml:space="preserve">
<style type="text/css">
	.st0{fill:#2C3E50;}
	.st1{fill:#E74C3C;}
</style>
<g id="_x3C_Bracket_x3E_">
	<path class="st0" d="M5.5,9.6l4.9,4.4L8,16.6L0.6,9.7l7.2-7.5l2.6,2.4L5.5,9.6z"/>
	<path class="st1" d="M10.6,18.9H7.1l7.1-17.1h3.5L10.6,18.9z"/>
	<path class="st0" d="M14.4,4.7l2.6-2.4l7.2,7.5l-7.4,6.9L14.4,14l4.9-4.4L14.4,4.7z"/>
</g>
<g>
	<path class="st0" d="M28.6,5.6h5.3c0.3,0,0.6,0.2,0.6,0.6s-0.3,0.6-0.6,0.6h-4.1v1.9h2.9c0.3,0,0.6,0.2,0.6,0.6S33,10,32.7,10h-2.9
		v4.7c0,0.4-0.2,0.6-0.6,0.6s-0.6-0.2-0.6-0.6V5.6z"/>
	<path class="st0" d="M37.2,9.5c0-0.4,0-0.9,0.6-0.9c0.5,0,0.6,0.4,0.6,0.8v0.5l0.9-0.8c0.3-0.3,0.7-0.5,1-0.5h0.9
		c0.4,0,0.8,0.1,1.1,0.5c0.4,0.4,0.5,0.8,0.5,1.4c0,0.4-0.1,0.8-0.6,0.8c-0.4,0-0.6-0.3-0.6-0.7c0-0.2,0-0.3-0.1-0.5
		c-0.1-0.2-0.4-0.2-0.7-0.2h-0.3c-0.2,0-0.4,0.1-0.6,0.3l-1.6,1.4v3c0,0.4-0.1,0.8-0.6,0.8c-0.5,0-0.6-0.4-0.6-0.8V9.5z"/>
	<path class="st0" d="M45.8,10.8c0-0.8,0.2-1.1,0.7-1.6c0.6-0.5,0.8-0.7,1.6-0.7H49c0.8,0,1.1,0.2,1.6,0.7c0.6,0.5,0.7,0.8,0.7,1.6
		v2.3c0,0.8-0.2,1.1-0.8,1.6c-0.6,0.5-0.8,0.6-1.6,0.6h-0.9c-0.7,0-1-0.1-1.6-0.6c-0.6-0.5-0.8-0.8-0.8-1.6V10.8z M46.9,13.1
		c0,0.2,0.1,0.4,0.4,0.7c0.2,0.2,0.4,0.3,0.8,0.3H49c0.4,0,0.5-0.1,0.8-0.3c0.3-0.3,0.4-0.5,0.4-0.7v-2.3c0-0.2-0.1-0.4-0.4-0.7
		c-0.2-0.2-0.4-0.3-0.8-0.3h-0.9c-0.4,0-0.5,0.1-0.8,0.3c-0.3,0.3-0.4,0.5-0.4,0.7V13.1z"/>
	<path class="st0" d="M55.5,11v3.5c0,0.4-0.1,0.8-0.6,0.8c-0.5,0-0.6-0.4-0.6-0.8v-5c0-0.4,0-0.9,0.6-0.9c0.5,0,0.6,0.4,0.6,0.9v0.1
		v0L56.4,9c0.3-0.2,0.6-0.4,1-0.4h0.8c0.4,0,0.7,0.1,1.1,0.4c0.5,0.5,0.5,1,0.5,1.6l0.1,3.8c0,0.4,0,0.9-0.6,0.9
		c-0.5,0-0.6-0.4-0.6-0.8l-0.1-3.7c0-0.7-0.1-1-0.8-1h-0.4c-0.1,0-0.2,0-0.4,0.1L55.5,11z"/>
	<path class="st0" d="M65.1,13.1c0,0.7,0,1.1,0.8,1.1h0.6c0.5,0,0.7,0,0.8-0.5c0.1-0.3,0.3-0.5,0.6-0.5c0.3,0,0.6,0.3,0.6,0.6
		c0,0.3-0.2,0.8-0.4,1c-0.4,0.5-1,0.6-1.6,0.6h-0.6c-0.6,0-1.1-0.1-1.5-0.6c-0.4-0.5-0.4-1-0.4-1.7V9.8h-0.4c-0.3,0-0.8-0.1-0.8-0.6
		c0-0.5,0.4-0.6,0.8-0.6H64V7.4c0-0.4,0.1-0.8,0.6-0.8c0.5,0,0.6,0.4,0.6,0.8v1.2H67c0.4,0,0.8,0.1,0.8,0.6c0,0.5-0.5,0.6-0.8,0.6
		h-1.9V13.1z"/>
	<path class="st0" d="M85,14.1c0.3,0,0.6,0.2,0.6,0.6c0,0.4-0.3,0.6-0.6,0.6h-5.3V5.6H85c0.3,0,0.6,0.2,0.6,0.6S85.3,6.9,85,6.9H81
		v3h1.7c0.3,0,0.6,0.2,0.6,0.6s-0.3,0.6-0.6,0.6H81v3H85z"/>
	<path class="st0" d="M89.6,11v3.5c0,0.4-0.1,0.8-0.6,0.8c-0.5,0-0.6-0.4-0.6-0.8v-5c0-0.4,0-0.9,0.6-0.9c0.5,0,0.6,0.4,0.6,0.9v0.1
		v0L90.5,9c0.3-0.2,0.6-0.4,1-0.4h0.8c0.4,0,0.7,0.1,1.1,0.4c0.5,0.5,0.5,1,0.5,1.6l0.1,3.8c0,0.4,0,0.9-0.6,0.9
		c-0.5,0-0.6-0.4-0.6-0.8l-0.1-3.7c0-0.7-0.1-1-0.8-1h-0.4c-0.1,0-0.2,0-0.4,0.1L89.6,11z"/>
	<path class="st0" d="M100.1,8.6c0.4,0,0.7,0.2,1.1,0.7l0.2,0.2V7c0-0.4,0.1-0.8,0.6-0.8c0.5,0,0.6,0.4,0.6,0.8v7.5
		c0,0.4-0.1,0.8-0.6,0.8c-0.5,0-0.6-0.4-0.6-0.8v-0.1l-0.2,0.3c-0.4,0.3-0.7,0.6-1.1,0.6H99c-0.4,0-0.8-0.3-1-0.4l-0.4-0.3
		c-0.5-0.4-0.6-0.7-0.6-1.4v-2.4c0-0.6,0.2-1,0.6-1.4L98,9c0.4-0.3,0.6-0.4,1.1-0.4H100.1z M98.1,12.7c0,0.3,0,0.8,0.2,0.9l0.3,0.3
		c0.1,0.1,0.3,0.2,0.4,0.2h0.8c0.1,0,0.3-0.1,0.6-0.3l0.7-0.6c0.2-0.1,0.3-0.3,0.3-0.5v-1.5c0-0.2-0.2-0.4-0.3-0.5l-0.7-0.6
		c-0.2-0.2-0.4-0.3-0.6-0.3h-0.8c-0.1,0-0.3,0.1-0.4,0.2l-0.3,0.3c-0.2,0.1-0.2,0.6-0.2,0.9V12.7z"/>
	<path class="st0" d="M115.1,6.9h-0.4c-0.4,0-0.7-0.1-0.7-0.6c0-0.4,0.3-0.6,0.7-0.6h2c0.9,0,1.4,0.4,1.8,1.2l1,2.2
		c0.2,0.5,0.4,0.9,0.4,1.4c0,0.5-0.1,0.9-0.3,1.4l-1.1,2.3c-0.4,0.9-0.9,1.2-1.9,1.2h-2c-0.3,0-0.6-0.2-0.6-0.6
		c0-0.4,0.3-0.6,0.6-0.6h0.6V6.9z M116.2,14.1h0.2c0.5,0,0.6-0.1,0.8-0.5l1-2.2c0.1-0.3,0.2-0.5,0.2-0.8c0-0.4-0.1-0.7-0.3-1l-1-2.1
		c-0.2-0.5-0.4-0.5-0.9-0.5h-0.1V14.1z"/>
	<path class="st0" d="M124.7,15.3c-0.5,0-0.7,0-1-0.3l-0.5-0.4c-0.5-0.4-0.6-0.7-0.6-1.3v-2.3c0-0.6,0.1-1,0.6-1.4l0.4-0.4
		c0.5-0.5,0.8-0.5,1.3-0.5h1c0.6,0,0.8,0.1,1.3,0.4l0.5,0.4c0.5,0.4,0.6,0.9,0.6,1.6v1c0,0.7-0.1,0.9-0.8,0.9h-3.7v0.4
		c0,0.1,0.1,0.3,0.2,0.3l0.3,0.3c0.2,0.2,0.4,0.2,0.8,0.2h2.4c0.4,0,0.8,0.1,0.8,0.6c0,0.5-0.5,0.6-0.8,0.6H124.7z M123.7,11.6h3.3
		v-0.7c0-0.2,0-0.4-0.1-0.6l-0.4-0.4c-0.1-0.1-0.4-0.1-0.5-0.1h-1c-0.2,0-0.4,0-0.6,0.1l-0.4,0.3c-0.1,0.1-0.2,0.2-0.2,0.5V11.6z"/>
	<path class="st0" d="M135.5,10.1V9.5c0-0.4,0.1-0.9,0.6-0.9c0.4,0,0.6,0.3,0.6,0.7v0.8c0,0.2,0,0.3-0.1,0.5l-1.7,3.9
		c-0.1,0.2-0.3,0.7-0.6,0.7h-0.7c-0.3,0-0.5-0.5-0.6-0.7l-1.7-3.9c-0.1-0.2-0.1-0.3-0.1-0.5V9.3c0-0.4,0.2-0.7,0.6-0.7
		c0.5,0,0.6,0.5,0.6,0.9v0.6l1.6,4L135.5,10.1z"/>
</g>
</svg>
